<?xml version="1.0" encoding="UTF-8"?>
<svg version="1.1" viewBox="0 0 2048 2048" width="1280" height="1280" xmlns="http://www.w3.org/2000/svg">
<path transform="translate(0)" d="m0 0h2048v2048h-2048z" fill="#FDFDFD"/>
<path transform="translate(537,248)" d="m0 0 13 1 12 4 11 7 10 10 6 10 4 13v80h134v-75l3-14 7-13 9-10 11-7 10-4 12-2 13 1 12 4 12 7 8 8 7 11 4 12 1 6v76h134v-79l4-13 6-11 11-11 10-6 12-4 13-1 13 2 12 5 9 7 8 8 6 11 4 13v79h134v-76l3-13 6-12 11-12 14-8 10-3 13-1 12 2 12 5 11 8 7 8 8 16 2 11v75h134v-80l5-15 7-10 9-9 12-7 10-3 13-1 13 2 12 5 9 7 8 8 8 16 2 8v79h93l16 3 13 5 13 7 10 8 11 11 9 14 6 13 4 14 1 8v1260l-3 16-5 14-8 14-11 13-9 8-11 7-15 7-16 4-11 1h-1251l-17-2-16-5-17-9-13-11-9-10-9-15-5-12-3-12-1-8v-1260l3-16 5-13 7-13 8-10 11-11 14-9 13-6 14-4 8-1h93v-79l4-13 6-11 11-11 10-6 12-4z" fill="#E6E6E6"/>
<path transform="translate(537,248)" d="m0 0 13 1 12 4 11 7 10 10 6 10 4 13v80h134v-75l3-14 7-13 9-10 11-7 10-4 12-2 13 1 12 4 12 7 8 8 7 11 4 12 1 6v76h134v-79l4-13 6-11 11-11 10-6 12-4 13-1 13 2 12 5 9 7 8 8 6 11 4 13v79h134v-76l3-13 6-12 11-12 14-8 10-3 13-1 12 2 12 5 11 8 7 8 8 16 2 11v75h134v-80l5-15 7-10 9-9 12-7 10-3 13-1 13 2 12 5 9 7 8 8 8 16 2 8v79h93l16 3 13 5 13 7 10 8 11 11 9 14 6 13 4 14 1 8v1260l-3 16-5 14-8 14-11 13-9 8-11 7-15 7-16 4-11 1h-1251l-17-2-16-5-17-9-13-11-9-10-9-15-5-12-3-12-1-8v-1260l3-16 5-13 7-13 8-10 11-11 14-9 13-6 14-4 8-1h93v-79l4-13 6-11 11-11 10-6 12-4zm-213 446v1020l3 16 7 16 8 11 11 11 14 9 13 5 10 2h1268l16-4 14-7 10-8 10-10 8-13 5-12 3-16v-1020z" fill="#5AB2E2"/>
<path transform="translate(537,248)" d="m0 0 13 1 12 4 11 7 10 10 6 10 4 13v80h134v-75l3-14 7-13 9-10 11-7 10-4 12-2 13 1 12 4 12 7 8 8 7 11 4 12 1 6v76h134v-79l4-13 6-11 11-11 10-6 12-4 13-1 13 2 12 5 9 7 8 8 6 11 4 13v79h134v-76l3-13 6-12 11-12 14-8 10-3 13-1 12 2 12 5 11 8 7 8 8 16 2 11v75h134v-80l5-15 7-10 9-9 12-7 10-3 13-1 13 2 12 5 9 7 8 8 8 16 2 8v79h93l16 3 13 5 13 7 10 8 11 11 9 14 6 13 4 14 1 8v1260l-3 16-5 14-8 14-11 13-9 8-11 7-15 7-16 4-11 1h-1251l-17-2-16-5-17-9-13-11-9-10-9-15-5-12-3-12-1-8v-1260l3-16 5-13 7-13 8-10 11-11 14-9 13-6 14-4 8-1h93v-79l4-13 6-11 11-11 10-6 12-4zm-144 140-14 3-15 6-10 7-10 9-9 12-6 12-4 14-1 7v221h1400v-221l-3-15-6-15-10-14-8-8-10-7-12-6-14-4-6-1h-92l-1 79-4 13-4 8-9 10-7 6-11 5-14 3h-9l-16-4-11-6-7-6-9-13-4-11-1-4-1-80h-134l-1 75-3 14-6 12-10 11-11 7-12 4-7 1h-9l-14-3-12-6-11-10-7-11-4-12-1-6-1-76h-134l-1 79-4 14-7 11-5 6-10 7-12 5-11 2h-8l-14-3-14-7-7-6-9-13-4-11-1-5-1-79h-134l-1 76-3 13-6 12-10 11-11 7-12 4-7 1h-9l-14-3-12-6-11-10-7-11-4-12-1-7-1-75h-134l-1 80-4 13-7 11-5 6-10 7-12 5-10 2h-9l-14-3-14-7-11-11-6-10-4-14-1-79zm-69 306v1020l3 16 7 16 8 11 11 11 14 9 13 5 10 2h1268l16-4 14-7 10-8 10-10 8-13 5-12 3-16v-1020z" fill="#3D4547"/>
<path transform="translate(1457,1028)" d="m0 0h222v200h-222l-1-1v-198z" fill="#70787C"/>
<path transform="translate(1185,1028)" d="m0 0h222v200h-222l-1-1v-198z" fill="#70787C"/>
<path transform="translate(913,1028)" d="m0 0h222l1 1v198l-1 1h-222z" fill="#70787C"/>
<path transform="translate(641,1028)" d="m0 0h222l1 1v198l-1 1h-222z" fill="#70787C"/>
<path transform="translate(369,1028)" d="m0 0h222l1 1v198l-1 1h-222z" fill="#70787C"/>
<path transform="translate(641,1535)" d="m0 0h223v199h-223z" fill="#70787C"/>
<path transform="translate(369,1535)" d="m0 0h223v199h-223z" fill="#70787C"/>
<path transform="translate(913,1535)" d="m0 0h223v198l-1 1h-222z" fill="#70787C"/>
<path transform="translate(1456,1282)" d="m0 0h223v199h-222l-1-1z" fill="#70787C"/>
<path transform="translate(1184,1282)" d="m0 0h223v199h-222l-1-1z" fill="#70787C"/>
<path transform="translate(913,1282)" d="m0 0h223v198l-1 1h-222z" fill="#E17777"/>
<path transform="translate(641,1282)" d="m0 0h223v198l-1 1h-222z" fill="#70787C"/>
<path transform="translate(369,1282)" d="m0 0h223v198l-1 1h-222z" fill="#70787C"/>
<path transform="translate(1457,775)" d="m0 0h222v199h-223v-198z" fill="#70787C"/>
<path transform="translate(1185,775)" d="m0 0h222v199h-223v-198z" fill="#70787C"/>
<path transform="translate(913,775)" d="m0 0h222l1 1v198h-223z" fill="#70787C"/>
<path transform="translate(1258,264)" d="m0 0h17l11 4 10 8 7 11 3 12v163l-3 12-7 11-7 6-10 5-10 2-12-1-10-4-9-7-7-10-4-13v-165l4-13 8-11 10-7z" fill="#70787C"/>
<path transform="translate(773,264)" d="m0 0h17l11 4 10 8 7 11 3 11v164l-3 12-7 11-7 6-10 5-9 2-13-1-10-4-9-7-7-10-3-8-1-6v-163l3-12 7-11 10-8z" fill="#70787C"/>
<path transform="translate(1015,264)" d="m0 0h18l12 5 10 9 6 10 2 8v170l-4 11-6 8-8 7-8 4-10 2-12-1-10-4-8-6-7-8-4-9-1-4v-170l3-10 6-9 9-8z" fill="#70787C"/>
<path transform="translate(1500,264)" d="m0 0h18l12 5 10 9 5 8 3 10v169l-3 10-6 9-9 8-12 5-12 1-12-3-10-6-7-7-6-12-1-4v-171l4-11 6-8 8-7z" fill="#70787C"/>
<path transform="translate(530,264)" d="m0 0h18l12 5 10 9 6 10 2 7v171l-4 11-6 8-8 7-8 4-10 2-12-1-12-5-10-9-6-10-2-8v-169l4-12 7-9 7-6z" fill="#70787C"/>
<path transform="translate(1185,1028)" d="m0 0h222v200h-222l-1-1v-198zm15 16v168h192v-168z" fill="#3D4547"/>
<path transform="translate(913,1028)" d="m0 0h222l1 1v198l-1 1h-222zm15 16v168h192v-168z" fill="#3D4547"/>
<path transform="translate(1457,1028)" d="m0 0h222v200h-222l-1-1v-198zm14 16v168h193v-168z" fill="#3D4547"/>
<path transform="translate(641,1028)" d="m0 0h222l1 1v198l-1 1h-222zm15 16v168h193v-168z" fill="#3D4547"/>
<path transform="translate(369,1028)" d="m0 0h222l1 1v198l-1 1h-222zm15 16v168h193v-168z" fill="#3D4547"/>
<path transform="translate(913,1535)" d="m0 0h223v198l-1 1h-222zm15 15v169h192v-169z" fill="#3C4446"/>
<path transform="translate(1184,1282)" d="m0 0h223v199h-222l-1-1zm16 15v169h192v-169z" fill="#3C4446"/>
<path transform="translate(1185,775)" d="m0 0h222v199h-223v-198zm15 15v169h192v-169z" fill="#3C4446"/>
<path transform="translate(913,775)" d="m0 0h222l1 1v198h-223zm15 15v169h192v-169z" fill="#3C4446"/>
<path transform="translate(641,1535)" d="m0 0h223v199h-223zm15 15v169h192l1-1v-168z" fill="#3C4446"/>
<path transform="translate(369,1535)" d="m0 0h223v199h-223zm15 15v169h192l1-1v-168z" fill="#3C4446"/>
<path transform="translate(1456,1282)" d="m0 0h223v199h-222l-1-1zm15 15v168l1 1h192v-169z" fill="#3C4446"/>
<path transform="translate(913,1282)" d="m0 0h223v198l-1 1h-222zm15 15v169h192l1-1v-168z" fill="#3C4446"/>
<path transform="translate(641,1282)" d="m0 0h223v198l-1 1h-222zm15 15v169h192l1-1v-168z" fill="#3C4446"/>
<path transform="translate(369,1282)" d="m0 0h223v198l-1 1h-222zm15 15v169h192l1-1v-168z" fill="#3C4446"/>
<path transform="translate(1457,775)" d="m0 0h222v199h-223v-198zm15 15-1 1v168h193v-169z" fill="#3C4446"/>
</svg>
